<mxfile host="app.diagrams.net" modified="2020-10-28T06:12:03.034Z" agent="5.0 (Windows NT 10.0; Win64; x64) AppleWebKit/537.36 (KHTML, like Gecko) Chrome/86.0.4240.111 Safari/537.36" etag="a7SOBEBXfOfkdDHHANw7" version="13.8.5" type="github">
  <diagram id="LiOSI9ZDLrKecpY9AnE3" name="Page-1">
    <mxGraphModel dx="863" dy="1853" grid="1" gridSize="10" guides="1" tooltips="1" connect="1" arrows="1" fold="1" page="1" pageScale="1" pageWidth="850" pageHeight="1100" math="0" shadow="0">
      <root>
        <mxCell id="0" />
        <mxCell id="1" parent="0" />
        <mxCell id="v7xUOIyw-9q7dPfqGckx-11" style="edgeStyle=orthogonalEdgeStyle;rounded=0;orthogonalLoop=1;jettySize=auto;html=1;entryX=0.5;entryY=1;entryDx=0;entryDy=0;endArrow=block;endFill=1;" edge="1" parent="1" source="v7xUOIyw-9q7dPfqGckx-5" target="v7xUOIyw-9q7dPfqGckx-9">
          <mxGeometry relative="1" as="geometry" />
        </mxCell>
        <mxCell id="v7xUOIyw-9q7dPfqGckx-5" value="MyServerInitializer" style="swimlane;fontStyle=1;align=center;verticalAlign=top;childLayout=stackLayout;horizontal=1;startSize=26;horizontalStack=0;resizeParent=1;resizeParentMax=0;resizeLast=0;collapsible=1;marginBottom=0;" vertex="1" parent="1">
          <mxGeometry x="370" y="300" width="160" height="34" as="geometry" />
        </mxCell>
        <mxCell id="v7xUOIyw-9q7dPfqGckx-7" value="" style="line;strokeWidth=1;fillColor=none;align=left;verticalAlign=middle;spacingTop=-1;spacingLeft=3;spacingRight=3;rotatable=0;labelPosition=right;points=[];portConstraint=eastwest;" vertex="1" parent="v7xUOIyw-9q7dPfqGckx-5">
          <mxGeometry y="26" width="160" height="8" as="geometry" />
        </mxCell>
        <mxCell id="v7xUOIyw-9q7dPfqGckx-18" style="edgeStyle=orthogonalEdgeStyle;rounded=0;orthogonalLoop=1;jettySize=auto;html=1;entryX=0.5;entryY=1;entryDx=0;entryDy=0;endArrow=block;endFill=1;" edge="1" parent="1" source="v7xUOIyw-9q7dPfqGckx-9" target="v7xUOIyw-9q7dPfqGckx-12">
          <mxGeometry relative="1" as="geometry" />
        </mxCell>
        <mxCell id="v7xUOIyw-9q7dPfqGckx-26" style="edgeStyle=orthogonalEdgeStyle;rounded=0;orthogonalLoop=1;jettySize=auto;html=1;exitX=0.75;exitY=0;exitDx=0;exitDy=0;entryX=0.5;entryY=1;entryDx=0;entryDy=0;endArrow=none;endFill=0;dashed=1;" edge="1" parent="1" source="v7xUOIyw-9q7dPfqGckx-9" target="v7xUOIyw-9q7dPfqGckx-15">
          <mxGeometry relative="1" as="geometry" />
        </mxCell>
        <mxCell id="v7xUOIyw-9q7dPfqGckx-27" style="edgeStyle=orthogonalEdgeStyle;rounded=0;orthogonalLoop=1;jettySize=auto;html=1;exitX=0.25;exitY=0;exitDx=0;exitDy=0;entryX=0.5;entryY=1;entryDx=0;entryDy=0;dashed=1;endArrow=open;endFill=0;" edge="1" parent="1" source="v7xUOIyw-9q7dPfqGckx-9" target="v7xUOIyw-9q7dPfqGckx-14">
          <mxGeometry relative="1" as="geometry" />
        </mxCell>
        <mxCell id="v7xUOIyw-9q7dPfqGckx-9" value="ChannelInitializer" style="swimlane;fontStyle=1;align=center;verticalAlign=top;childLayout=stackLayout;horizontal=1;startSize=26;horizontalStack=0;resizeParent=1;resizeParentMax=0;resizeLast=0;collapsible=1;marginBottom=0;" vertex="1" parent="1">
          <mxGeometry x="370" y="220" width="160" height="34" as="geometry" />
        </mxCell>
        <mxCell id="v7xUOIyw-9q7dPfqGckx-10" value="" style="line;strokeWidth=1;fillColor=none;align=left;verticalAlign=middle;spacingTop=-1;spacingLeft=3;spacingRight=3;rotatable=0;labelPosition=right;points=[];portConstraint=eastwest;" vertex="1" parent="v7xUOIyw-9q7dPfqGckx-9">
          <mxGeometry y="26" width="160" height="8" as="geometry" />
        </mxCell>
        <mxCell id="v7xUOIyw-9q7dPfqGckx-19" style="edgeStyle=orthogonalEdgeStyle;rounded=0;orthogonalLoop=1;jettySize=auto;html=1;entryX=0.5;entryY=1;entryDx=0;entryDy=0;endArrow=block;endFill=1;" edge="1" parent="1" source="v7xUOIyw-9q7dPfqGckx-12" target="v7xUOIyw-9q7dPfqGckx-16">
          <mxGeometry relative="1" as="geometry">
            <Array as="points">
              <mxPoint x="410" y="92" />
              <mxPoint x="365" y="92" />
            </Array>
          </mxGeometry>
        </mxCell>
        <mxCell id="v7xUOIyw-9q7dPfqGckx-25" style="edgeStyle=orthogonalEdgeStyle;rounded=0;orthogonalLoop=1;jettySize=auto;html=1;exitX=0.75;exitY=0;exitDx=0;exitDy=0;dashed=1;endArrow=block;endFill=1;" edge="1" parent="1" source="v7xUOIyw-9q7dPfqGckx-12" target="v7xUOIyw-9q7dPfqGckx-22">
          <mxGeometry relative="1" as="geometry" />
        </mxCell>
        <mxCell id="v7xUOIyw-9q7dPfqGckx-12" value="ChannelInboundHandlerAdapter" style="swimlane;fontStyle=1;align=center;verticalAlign=top;childLayout=stackLayout;horizontal=1;startSize=26;horizontalStack=0;resizeParent=1;resizeParentMax=0;resizeLast=0;collapsible=1;marginBottom=0;" vertex="1" parent="1">
          <mxGeometry x="355" y="130" width="190" height="34" as="geometry" />
        </mxCell>
        <mxCell id="v7xUOIyw-9q7dPfqGckx-13" value="" style="line;strokeWidth=1;fillColor=none;align=left;verticalAlign=middle;spacingTop=-1;spacingLeft=3;spacingRight=3;rotatable=0;labelPosition=right;points=[];portConstraint=eastwest;" vertex="1" parent="v7xUOIyw-9q7dPfqGckx-12">
          <mxGeometry y="26" width="190" height="8" as="geometry" />
        </mxCell>
        <mxCell id="v7xUOIyw-9q7dPfqGckx-14" value="«interface»&lt;br&gt;&lt;b&gt;Channel&lt;/b&gt;" style="html=1;" vertex="1" parent="1">
          <mxGeometry x="170" y="130" width="110" height="32" as="geometry" />
        </mxCell>
        <mxCell id="v7xUOIyw-9q7dPfqGckx-15" value="«interface»&lt;br&gt;Sharable" style="html=1;" vertex="1" parent="1">
          <mxGeometry x="620" y="130" width="110" height="32" as="geometry" />
        </mxCell>
        <mxCell id="v7xUOIyw-9q7dPfqGckx-21" style="edgeStyle=orthogonalEdgeStyle;rounded=0;orthogonalLoop=1;jettySize=auto;html=1;entryX=0.25;entryY=1;entryDx=0;entryDy=0;endArrow=block;endFill=1;dashed=1;" edge="1" parent="1" source="v7xUOIyw-9q7dPfqGckx-16" target="v7xUOIyw-9q7dPfqGckx-20">
          <mxGeometry relative="1" as="geometry" />
        </mxCell>
        <mxCell id="v7xUOIyw-9q7dPfqGckx-16" value="ChannelHandlerAdapter" style="swimlane;fontStyle=1;align=center;verticalAlign=top;childLayout=stackLayout;horizontal=1;startSize=26;horizontalStack=0;resizeParent=1;resizeParentMax=0;resizeLast=0;collapsible=1;marginBottom=0;" vertex="1" parent="1">
          <mxGeometry x="270" y="20" width="190" height="34" as="geometry" />
        </mxCell>
        <mxCell id="v7xUOIyw-9q7dPfqGckx-17" value="" style="line;strokeWidth=1;fillColor=none;align=left;verticalAlign=middle;spacingTop=-1;spacingLeft=3;spacingRight=3;rotatable=0;labelPosition=right;points=[];portConstraint=eastwest;" vertex="1" parent="v7xUOIyw-9q7dPfqGckx-16">
          <mxGeometry y="26" width="190" height="8" as="geometry" />
        </mxCell>
        <mxCell id="v7xUOIyw-9q7dPfqGckx-20" value="«interface»&lt;br&gt;&lt;b&gt;ChannelHandler&lt;/b&gt;" style="html=1;" vertex="1" parent="1">
          <mxGeometry x="390" y="-90" width="110" height="40" as="geometry" />
        </mxCell>
        <mxCell id="v7xUOIyw-9q7dPfqGckx-24" style="edgeStyle=orthogonalEdgeStyle;rounded=0;orthogonalLoop=1;jettySize=auto;html=1;entryX=0.75;entryY=1;entryDx=0;entryDy=0;endArrow=block;endFill=1;" edge="1" parent="1" source="v7xUOIyw-9q7dPfqGckx-22" target="v7xUOIyw-9q7dPfqGckx-20">
          <mxGeometry relative="1" as="geometry">
            <Array as="points">
              <mxPoint x="590" y="-10" />
              <mxPoint x="473" y="-10" />
            </Array>
          </mxGeometry>
        </mxCell>
        <mxCell id="v7xUOIyw-9q7dPfqGckx-22" value="«interface»&lt;br&gt;ChannelInboundHandler" style="html=1;" vertex="1" parent="1">
          <mxGeometry x="520" y="17" width="140" height="37" as="geometry" />
        </mxCell>
        <mxCell id="v7xUOIyw-9q7dPfqGckx-33" style="edgeStyle=orthogonalEdgeStyle;rounded=0;orthogonalLoop=1;jettySize=auto;html=1;entryX=0.5;entryY=1;entryDx=0;entryDy=0;endArrow=block;endFill=1;" edge="1" parent="1" source="v7xUOIyw-9q7dPfqGckx-28" target="v7xUOIyw-9q7dPfqGckx-30">
          <mxGeometry relative="1" as="geometry" />
        </mxCell>
        <mxCell id="v7xUOIyw-9q7dPfqGckx-28" value="ChatGroupServerHandler" style="swimlane;fontStyle=1;align=center;verticalAlign=top;childLayout=stackLayout;horizontal=1;startSize=26;horizontalStack=0;resizeParent=1;resizeParentMax=0;resizeLast=0;collapsible=1;marginBottom=0;" vertex="1" parent="1">
          <mxGeometry x="995" y="300" width="160" height="34" as="geometry" />
        </mxCell>
        <mxCell id="v7xUOIyw-9q7dPfqGckx-29" value="" style="line;strokeWidth=1;fillColor=none;align=left;verticalAlign=middle;spacingTop=-1;spacingLeft=3;spacingRight=3;rotatable=0;labelPosition=right;points=[];portConstraint=eastwest;" vertex="1" parent="v7xUOIyw-9q7dPfqGckx-28">
          <mxGeometry y="26" width="160" height="8" as="geometry" />
        </mxCell>
        <mxCell id="v7xUOIyw-9q7dPfqGckx-36" style="edgeStyle=orthogonalEdgeStyle;rounded=0;orthogonalLoop=1;jettySize=auto;html=1;entryX=0.5;entryY=1;entryDx=0;entryDy=0;endArrow=block;endFill=1;" edge="1" parent="1" source="v7xUOIyw-9q7dPfqGckx-30" target="v7xUOIyw-9q7dPfqGckx-34">
          <mxGeometry relative="1" as="geometry" />
        </mxCell>
        <mxCell id="v7xUOIyw-9q7dPfqGckx-30" value="SimpleChannelInboundHandler" style="swimlane;fontStyle=1;align=center;verticalAlign=top;childLayout=stackLayout;horizontal=1;startSize=26;horizontalStack=0;resizeParent=1;resizeParentMax=0;resizeLast=0;collapsible=1;marginBottom=0;" vertex="1" parent="1">
          <mxGeometry x="970" y="200" width="210" height="34" as="geometry" />
        </mxCell>
        <mxCell id="v7xUOIyw-9q7dPfqGckx-31" value="" style="line;strokeWidth=1;fillColor=none;align=left;verticalAlign=middle;spacingTop=-1;spacingLeft=3;spacingRight=3;rotatable=0;labelPosition=right;points=[];portConstraint=eastwest;" vertex="1" parent="v7xUOIyw-9q7dPfqGckx-30">
          <mxGeometry y="26" width="210" height="8" as="geometry" />
        </mxCell>
        <mxCell id="v7xUOIyw-9q7dPfqGckx-44" style="edgeStyle=orthogonalEdgeStyle;rounded=0;orthogonalLoop=1;jettySize=auto;html=1;entryX=0.5;entryY=1;entryDx=0;entryDy=0;endArrow=block;endFill=1;" edge="1" parent="1" source="v7xUOIyw-9q7dPfqGckx-34" target="v7xUOIyw-9q7dPfqGckx-37">
          <mxGeometry relative="1" as="geometry">
            <Array as="points">
              <mxPoint x="1020" y="55" />
              <mxPoint x="975" y="55" />
            </Array>
          </mxGeometry>
        </mxCell>
        <mxCell id="v7xUOIyw-9q7dPfqGckx-46" style="edgeStyle=orthogonalEdgeStyle;rounded=0;orthogonalLoop=1;jettySize=auto;html=1;exitX=0.75;exitY=0;exitDx=0;exitDy=0;entryX=0.5;entryY=1;entryDx=0;entryDy=0;endArrow=block;endFill=1;dashed=1;" edge="1" parent="1" source="v7xUOIyw-9q7dPfqGckx-34" target="v7xUOIyw-9q7dPfqGckx-39">
          <mxGeometry relative="1" as="geometry" />
        </mxCell>
        <mxCell id="v7xUOIyw-9q7dPfqGckx-34" value="ChannelInboundHandlerAdapter" style="swimlane;fontStyle=1;align=center;verticalAlign=top;childLayout=stackLayout;horizontal=1;startSize=26;horizontalStack=0;resizeParent=1;resizeParentMax=0;resizeLast=0;collapsible=1;marginBottom=0;" vertex="1" parent="1">
          <mxGeometry x="970" y="90" width="210" height="34" as="geometry" />
        </mxCell>
        <mxCell id="v7xUOIyw-9q7dPfqGckx-35" value="" style="line;strokeWidth=1;fillColor=none;align=left;verticalAlign=middle;spacingTop=-1;spacingLeft=3;spacingRight=3;rotatable=0;labelPosition=right;points=[];portConstraint=eastwest;" vertex="1" parent="v7xUOIyw-9q7dPfqGckx-34">
          <mxGeometry y="26" width="210" height="8" as="geometry" />
        </mxCell>
        <mxCell id="v7xUOIyw-9q7dPfqGckx-43" style="edgeStyle=orthogonalEdgeStyle;rounded=0;orthogonalLoop=1;jettySize=auto;html=1;entryX=0.25;entryY=1;entryDx=0;entryDy=0;endArrow=block;endFill=1;dashed=1;" edge="1" parent="1" source="v7xUOIyw-9q7dPfqGckx-37" target="v7xUOIyw-9q7dPfqGckx-40">
          <mxGeometry relative="1" as="geometry" />
        </mxCell>
        <mxCell id="v7xUOIyw-9q7dPfqGckx-37" value="ChannelHandlerAdapter" style="swimlane;fontStyle=1;align=center;verticalAlign=top;childLayout=stackLayout;horizontal=1;startSize=26;horizontalStack=0;resizeParent=1;resizeParentMax=0;resizeLast=0;collapsible=1;marginBottom=0;" vertex="1" parent="1">
          <mxGeometry x="870" y="-14" width="210" height="34" as="geometry" />
        </mxCell>
        <mxCell id="v7xUOIyw-9q7dPfqGckx-38" value="" style="line;strokeWidth=1;fillColor=none;align=left;verticalAlign=middle;spacingTop=-1;spacingLeft=3;spacingRight=3;rotatable=0;labelPosition=right;points=[];portConstraint=eastwest;" vertex="1" parent="v7xUOIyw-9q7dPfqGckx-37">
          <mxGeometry y="26" width="210" height="8" as="geometry" />
        </mxCell>
        <mxCell id="v7xUOIyw-9q7dPfqGckx-42" style="edgeStyle=orthogonalEdgeStyle;rounded=0;orthogonalLoop=1;jettySize=auto;html=1;entryX=0.813;entryY=0.974;entryDx=0;entryDy=0;entryPerimeter=0;endArrow=block;endFill=1;" edge="1" parent="1" source="v7xUOIyw-9q7dPfqGckx-39" target="v7xUOIyw-9q7dPfqGckx-40">
          <mxGeometry relative="1" as="geometry" />
        </mxCell>
        <mxCell id="v7xUOIyw-9q7dPfqGckx-39" value="«interface»&lt;br&gt;ChannelInboundHandler" style="html=1;" vertex="1" parent="1">
          <mxGeometry x="1200" y="-38" width="160" height="38" as="geometry" />
        </mxCell>
        <mxCell id="v7xUOIyw-9q7dPfqGckx-40" value="«interface»&lt;br&gt;ChannelHandler" style="html=1;" vertex="1" parent="1">
          <mxGeometry x="1040" y="-140" width="160" height="38" as="geometry" />
        </mxCell>
      </root>
    </mxGraphModel>
  </diagram>
</mxfile>
